<svg xmlns="http://www.w3.org/2000/svg" width="15" height="15" fill="none" xmlns:v="https://vecta.io/nano"><path d="M13.395.018H2.203C1.433.018.804.649.804 1.419v11.208c0 .771.63 1.401 1.399 1.401h11.192c.77 0 1.399-.63 1.399-1.401V1.419c0-.771-.63-1.401-1.399-1.401zM7.799 4.222a2.81 2.81 0 0 1 2.798 2.802 2.81 2.81 0 0 1-2.798 2.802 2.81 2.81 0 0 1-2.798-2.802 2.81 2.81 0 0 1 2.798-2.802zm-5.246 8.406a.33.33 0 0 1-.35-.35V6.323h1.469c-.07.21-.07.49-.07.701 0 2.312 1.889 4.203 4.197 4.203s4.197-1.891 4.197-4.203c0-.21 0-.49-.07-.701h1.469v5.954a.33.33 0 0 1-.35.35H2.553zm10.842-9.457a.33.33 0 0 1-.35.35h-1.399a.33.33 0 0 1-.35-.35V1.77a.33.33 0 0 1 .35-.35h1.399a.33.33 0 0 1 .35.35v1.401z" fill="#2c4cbc"/></svg>