<svg xmlns="http://www.w3.org/2000/svg" width="25" height="16" fill="#2c4cbc" xmlns:v="https://vecta.io/nano"><path d="M25 1.807V.891H2.645v.916h10.764v1.831h-1.384c-.549-.002-1.076.24-1.464.671L8.633 6.44c-.232.259-.549.403-.878.402H2.9l-.828-1.831H0l.966 3.205L0 11.422h2.072L2.9 9.59h4.854c.33-.001.646.144.878.402l2.342 2.59c.387.431.914.672 1.464.671h.97v1.831h-1.656V16h12.834v-.916h-2.898v-1.831h.828c1.143-.002 2.069-1.026 2.07-2.289v-.615c.002-.608-.217-1.19-.606-1.619l-2.756-3.047c-.387-.431-.915-.672-1.464-.671h-1.626l-.636-.703c-.387-.431-.915-.672-1.464-.671h-1.798V1.807H25zM2.231 9.024l-.67 1.482H1.15l.552-1.831h.529v.35zm0-1.265h-.529L1.15 5.928h.412l.67 1.482v.35zm18.63 7.326h-6.624v-1.831h6.624v1.831zm-2.484-9.157h1.384c.33-.001.646.144.878.402l2.756 3.047a1.36 1.36 0 0 1 .139.188l.033.057a1.42 1.42 0 0 1 .08.166l.021.051a1.5 1.5 0 0 1 .057.209H18.79c-.229 0-.414-.205-.414-.458V5.927zm-2.342-1.374a1.18 1.18 0 0 1 .879.402l.636.703V9.59c0 .759.556 1.374 1.242 1.374h4.968c0 .759-.556 1.374-1.242 1.374h-10.08a1.18 1.18 0 0 1-.879-.402l-2.341-2.59c-.387-.431-.914-.672-1.464-.671H3.059v-.916h4.696c.549.002 1.076-.24 1.464-.671l1.928-2.132c.232-.258.549-.403.878-.402h4.01zm-.557.915h-.828c-.686 0-1.242.615-1.242 1.374V9.59c0 .759.556 1.374 1.242 1.374h.828c.686 0 1.242-.615 1.242-1.374V6.843c0-.759-.556-1.374-1.242-1.374zm.414 4.121c0 .253-.185.458-.414.458h-.828c-.229 0-.414-.205-.414-.458V6.843c0-.253.185-.458.414-.458h.828c.229 0 .414.205.414.458V9.59z"/></svg>