<svg xmlns="http://www.w3.org/2000/svg" xmlns:xlink="http://www.w3.org/1999/xlink" width="66" height="68" fill="none" xmlns:v="https://vecta.io/nano"><ellipse cx="33" cy="33.694" rx="33" ry="33.409" fill="#f3f4f8"/><g fill="#2c4cbc"><path d="M49.755 32.275l-1.024-4.144c.28-.06.49-.311.49-.613v-.668c0-1.451-1.166-2.631-2.599-2.631h-4.662V22.84c0-.714-.574-1.295-1.279-1.295H16.919c-.705 0-1.279.581-1.279 1.295v11.36c0 .346.277.627.619.627s.619-.281.619-.626V22.84c0-.023.018-.042.041-.042h23.763c.023 0 .041.019.041.042v11.36c0 .346.277.627.619.627s.619-.28.619-.626v-.71h7.3a2.03 2.03 0 0 1 1.926 1.42h-1.924c-.342 0-.619.28-.619.627v1.337c0 1.082.87 1.963 1.939 1.963h.701v2.757h-1.618c-.531-1.554-1.99-2.673-3.704-2.673s-3.172 1.119-3.704 2.673h-.298v-4.72c0-.346-.277-.626-.619-.626s-.619.281-.619.627v4.72H27.884c-.532-1.554-1.991-2.673-3.704-2.673s-3.172 1.119-3.704 2.673h-3.557c-.023 0-.041-.019-.041-.042v-1.378h2.682c.342 0 .619-.28.619-.626s-.277-.626-.619-.626h-5.941c-.342 0-.619.281-.619.627s.277.627.619.627h2.021v1.378c0 .714.574 1.295 1.279 1.295h3.343l-.001.042c0 2.188 1.758 3.968 3.919 3.968s3.919-1.78 3.919-3.968l-.001-.042h13.946l-.001.042c0 2.188 1.758 3.968 3.919 3.968s3.919-1.78 3.919-3.968l-.001-.042h2.023c.342 0 .619-.281.619-.626v-6.683c0-1.65-1.202-3.021-2.767-3.262zm-7.794-6.804h4.662c.751 0 1.361.618 1.361 1.378v.042h-6.023v-1.42zm0 6.766v-4.093h5.499l1.011 4.093h-6.509zM24.18 45.603c-1.479 0-2.681-1.218-2.681-2.715s1.203-2.715 2.682-2.715 2.682 1.218 2.682 2.715-1.203 2.715-2.682 2.715zm21.782 0c-1.479 0-2.681-1.218-2.681-2.715s1.203-2.715 2.682-2.715 2.682 1.218 2.682 2.715-1.203 2.715-2.682 2.715zm5.322-8.019h-.701c-.387 0-.701-.318-.701-.71v-.71h1.403v1.42h0z"/><use xlink:href="#B"/><use xlink:href="#B" x="21.783"/><path d="M38.702 38.92h-9.241c-.342 0-.619.28-.619.627s.277.627.619.627h9.241c.342 0 .619-.281.619-.626s-.277-.626-.619-.626zM22.86 36.247h-7.921c-.342 0-.619.28-.619.627s.277.627.619.627h7.921c.342 0 .619-.281.619-.626s-.277-.626-.619-.626zm11.659-8.504c-.242-.245-.634-.245-.875 0l-5.503 5.571-2.863-2.898c-.242-.245-.633-.245-.875 0a.63.63 0 0 0 0 .886l3.3 3.341c.121.122.279.184.438.184a.61.61 0 0 0 .438-.184l5.941-6.014a.63.63 0 0 0 0-.886z"/></g><defs ><path id="B" d="M24.18 41.593c-.705 0-1.279.581-1.279 1.295s.574 1.295 1.279 1.295 1.279-.581 1.279-1.295-.574-1.295-1.279-1.295z"/></defs></svg>