<svg xmlns="http://www.w3.org/2000/svg" width="66" height="68" fill="none" xmlns:v="https://vecta.io/nano"><ellipse cx="33" cy="33.694" rx="33" ry="33.409" fill="#f3f4f8"/><path d="M42.33 17.563l-6.581 3.847a.56.56 0 0 0-.201.758l.292.512c.171.3.069.686-.227.859a.62.62 0 0 1-.848-.23l-.292-.512c-.151-.265-.486-.356-.749-.203l-19.743 11.54c-.541.316-.727 1.019-.415 1.566l8.768 15.375c.312.548 1.006.736 1.547.42l19.743-11.54a.56.56 0 0 0 .201-.758l-.292-.513c-.171-.3-.069-.686.227-.859a.62.62 0 0 1 .849.23l.292.512c.151.265.486.356.749.203l6.581-3.847c.541-.316.727-1.019.415-1.566l-8.768-15.375c-.312-.547-1.006-.736-1.547-.42zm9.366 16.35c.01.018.004.04-.013.05l-6.106 3.569-.018-.032a1.71 1.71 0 0 0-1.826-.835l-.356-.624c-.151-.265-.486-.356-.749-.203a.56.56 0 0 0-.201.758l.356.624a1.76 1.76 0 0 0-.199 2.018l.018.032-19.268 11.263c-.018.01-.04.004-.05-.014l-8.768-15.375c-.01-.018-.004-.04.013-.051L33.798 23.83l.018.032a1.71 1.71 0 0 0 1.826.835l.356.624c.151.265.486.356.749.203a.56.56 0 0 0 .201-.758l-.356-.624a1.76 1.76 0 0 0 .199-2.018l-.018-.032 6.106-3.569c.017-.01.04-.004.05.014l8.768 15.375h0zm-14.329-7.299a.56.56 0 0 0-.201.758l.584 1.025c.151.265.486.356.749.203a.56.56 0 0 0 .201-.758l-.585-1.025c-.151-.265-.486-.356-.749-.203zm1.754 3.075a.56.56 0 0 0-.201.758l.585 1.025c.151.265.486.356.749.203a.56.56 0 0 0 .201-.758l-.585-1.025c-.151-.265-.486-.356-.749-.203zm1.753 3.075a.56.56 0 0 0-.201.758l.585 1.025c.151.265.486.356.749.203a.56.56 0 0 0 .201-.758l-.584-1.025c-.151-.265-.487-.356-.749-.203zm-10.257-3.383c-.292-.079-.593.096-.671.392l-3.851 14.551c-.078.296.095.6.388.679a.54.54 0 0 0 .416-.055.55.55 0 0 0 .255-.337l3.851-14.551c.078-.296-.095-.6-.387-.679zm-8.302 3.981c-1.378.806-1.852 2.596-1.056 3.991a2.87 2.87 0 0 0 3.943 1.07c1.378-.806 1.852-2.596 1.056-3.992a2.87 2.87 0 0 0-3.943-1.069zm2.338 4.1a1.78 1.78 0 0 1-2.445-.663c-.494-.865-.2-1.976.655-2.476a1.78 1.78 0 0 1 2.446.663 1.83 1.83 0 0 1-.655 2.476zm7.245-1.501c-1.378.806-1.852 2.596-1.056 3.991a2.87 2.87 0 0 0 3.943 1.07c1.378-.806 1.852-2.596 1.056-3.991a2.87 2.87 0 0 0-3.943-1.07zm2.338 4.1a1.78 1.78 0 0 1-2.445-.663c-.494-.865-.2-1.976.655-2.476a1.78 1.78 0 0 1 2.445.663c.494.865.2 1.976-.655 2.476z" fill="#2c4cbc"/></svg>