<svg width="28" height="28" viewBox="0 0 28 28" fill="none" xmlns="http://www.w3.org/2000/svg">
<path d="M10.5002 25.6667C11.1445 25.6667 11.6668 25.1444 11.6668 24.5C11.6668 23.8557 11.1445 23.3334 10.5002 23.3334C9.85583 23.3334 9.3335 23.8557 9.3335 24.5C9.3335 25.1444 9.85583 25.6667 10.5002 25.6667Z" stroke="#2C4CBC" stroke-width="2" stroke-linecap="round" stroke-linejoin="round"/>
<path d="M23.3332 25.6667C23.9775 25.6667 24.4998 25.1444 24.4998 24.5C24.4998 23.8557 23.9775 23.3334 23.3332 23.3334C22.6888 23.3334 22.1665 23.8557 22.1665 24.5C22.1665 25.1444 22.6888 25.6667 23.3332 25.6667Z" stroke="#2C4CBC" stroke-width="2" stroke-linecap="round" stroke-linejoin="round"/>
<path d="M1.1665 1.16663H5.83317L8.95984 16.7883C9.06652 17.3254 9.35873 17.8079 9.78531 18.1513C10.2119 18.4947 10.7457 18.6771 11.2932 18.6666H22.6332C23.1807 18.6771 23.7145 18.4947 24.141 18.1513C24.5676 17.8079 24.8598 17.3254 24.9665 16.7883L26.8332 6.99996H6.99984" stroke="#2C4CBC" stroke-width="2" stroke-linecap="round" stroke-linejoin="round"/>
</svg>
