<svg xmlns="http://www.w3.org/2000/svg" xmlns:xlink="http://www.w3.org/1999/xlink" width="32" height="29" fill="none" xmlns:v="https://vecta.io/nano"><g stroke="#2c4cbc" stroke-width="2" stroke-linejoin="round"><use xlink:href="#B"/><use xlink:href="#B" x="12.833"/><path d="M1.167 2.167h4.667L8.96 17.788c.107.537.399 1.02.825 1.363s.96.526 1.508.515h11.34c.548.011 1.081-.172 1.508-.515s.719-.826.826-1.363L26.833 8H7" stroke-linecap="round"/></g><ellipse cx="24.731" cy="6.582" rx="6.495" ry="6.505" fill="#2c4cbc"/><path d="M26.821 9h-4.386v-.87l2.07-2.206c.284-.311.494-.582.628-.813s.207-.451.207-.659c0-.284-.072-.507-.215-.668s-.349-.246-.615-.246c-.287 0-.514.1-.681.299s-.246.456-.246.778h-1.274a2.11 2.11 0 0 1 .277-1.068c.188-.322.451-.574.791-.756s.725-.277 1.156-.277c.659 0 1.171.158 1.534.475s.549.763.549 1.34c0 .316-.082.639-.246.967s-.445.71-.844 1.147L24.07 7.976h2.751V9z" fill="#fff"/><defs ><path id="B" d="M10.5 26.667c.644 0 1.167-.522 1.167-1.167s-.522-1.167-1.167-1.167-1.167.522-1.167 1.167.522 1.167 1.167 1.167z"/></defs></svg>