<svg xmlns="http://www.w3.org/2000/svg" xmlns:xlink="http://www.w3.org/1999/xlink" width="66" height="68" fill="none" xmlns:v="https://vecta.io/nano"><ellipse cx="33" cy="33.694" rx="33" ry="33.409" fill="#f3f4f8"/><path d="M50.21 24.57l-12.32-6.021c-.109-.053-.236-.053-.346 0l-12.32 6.021c-.137.067-.225.208-.225.362v14.623a.4.4 0 0 0 .225.362l12.32 6.021a.39.39 0 0 0 .173.04.39.39 0 0 0 .173-.04l12.32-6.021c.137-.067.225-.208.225-.362V24.932a.4.4 0 0 0-.225-.362zm-12.492-5.212l11.406 5.574-3.306 1.616a.39.39 0 0 0-.067-.043l-11.328-5.536 3.296-1.611zm-4.194 2.066l11.389 5.566-2.333 1.14-11.384-5.564 2.328-1.142zm11.655 6.33v4.214L43 33.032v-4.214l2.179-1.065zm4.461 11.549l-11.525 5.633v-13.73l2.749-1.344c.198-.097.28-.337.185-.537s-.333-.284-.531-.187l-2.801 1.369-1.102-.539c-.198-.097-.435-.013-.531.187s-.012.441.185.537l1.05.513v13.729l-11.525-5.633V25.573l8.776 4.289a.39.39 0 0 0 .172.04c.148 0 .29-.084.358-.227.096-.2.013-.441-.185-.537l-8.605-4.206 3.948-1.93L42.2 28.838l.006 4.836c0 .139.07.267.186.341.064.041.138.062.211.062a.39.39 0 0 0 .173-.04l2.974-1.453c.137-.067.225-.208.225-.362v-4.855l3.666-1.792v13.729h0zm-20.565-1.561l-1.808-.884c-.198-.097-.435-.013-.531.187s-.013.441.185.537l1.808.884a.39.39 0 0 0 .172.04c.148 0 .29-.084.358-.227.095-.2.013-.441-.185-.537zm1.664-1.097L27.27 34.95c-.198-.097-.435-.013-.531.188s-.013.441.185.537l3.469 1.696c.056.027.115.04.172.04.148 0 .29-.084.358-.227.096-.2.013-.441-.185-.537z" fill="#2c4cbc"/><ellipse cx="28.661" cy="39.845" rx="8.008" ry="8.108" fill="#f3f4f8"/><g fill="#2c4cbc"><path d="M16.645 35.409h3.348a.32.32 0 0 0 .317-.321.32.32 0 0 0-.317-.321h-3.348a.32.32 0 0 0-.317.321.32.32 0 0 0 .317.321z"/><use xlink:href="#B"/><path d="M15.317 39.184h3.238a.32.32 0 0 0 .317-.321.32.32 0 0 0-.317-.321h-3.238a.32.32 0 0 0-.317.321.32.32 0 0 0 .317.321zm4.993 5.697a.32.32 0 0 0-.317-.321h-3.348a.32.32 0 0 0-.317.321.32.32 0 0 0 .317.321h3.348a.32.32 0 0 0 .317-.321z"/><use xlink:href="#B" y="5.414"/><path d="M18.873 41.106a.32.32 0 0 0-.317-.321h-3.238a.32.32 0 0 0-.317.321.32.32 0 0 0 .317.321h3.238a.32.32 0 0 0 .317-.321zm9.651-4.985a.32.32 0 0 0 .317-.321v-.49a.32.32 0 0 0-.317-.321.32.32 0 0 0-.318.321v.49a.32.32 0 0 0 .318.321zm3.49.33c-.124-.126-.325-.126-.449 0l-.343.347c-.124.126-.124.329 0 .455s.325.126.449 0l.343-.347c.124-.126.124-.329 0-.454zm.643 3.212a.32.32 0 1 0 0 .642h.485a.32.32 0 0 0 .317-.321.32.32 0 0 0-.317-.321h-.485zm-.986 3.053c-.124-.126-.325-.126-.449 0s-.124.329 0 .455l.343.347c.124.126.325.125.449 0s.124-.329 0-.455l-.343-.347zm-3.464 1.454v.49a.32.32 0 0 0 .318.321.32.32 0 0 0 .317-.321v-.49a.32.32 0 0 0-.317-.321.32.32 0 0 0-.318.321zm-2.831-1.454l-.343.347c-.124.126-.124.329 0 .455s.325.125.449 0l.343-.347c.124-.126.124-.329 0-.455s-.325-.126-.449 0zm-1.471-3.053a.32.32 0 0 0-.317.321.32.32 0 0 0 .317.321h.485a.32.32 0 0 0 .317-.321.32.32 0 0 0-.317-.321h-.485z"/><path d="M25.825 36.798l-.343-.347c-.124-.126-.325-.126-.449 0s-.124.329 0 .454l.343.347c.124.126.325.126.449 0s.124-.329 0-.455zm4.406 3.187a.32.32 0 0 0-.317-.321h-1.072v-2.386a.32.32 0 0 0-.317-.321.32.32 0 0 0-.318.321v2.707a.32.32 0 0 0 .318.321h1.389a.32.32 0 0 0 .317-.321zm4.312-.054a.32.32 0 0 0 .298-.34c-.202-3.372-2.976-6.014-6.317-6.014-3.49 0-6.329 2.874-6.329 6.407s2.839 6.407 6.329 6.407c3.127 0 5.794-2.319 6.258-5.449a.32.32 0 0 0-.267-.365c-.173-.026-.335.094-.361.27-.417 2.812-2.815 4.901-5.63 4.901-3.14 0-5.694-2.586-5.694-5.765s2.554-5.765 5.694-5.765c3.005 0 5.501 2.376 5.683 5.41a.32.32 0 0 0 .336.301zm-6.019-8.194a8.06 8.06 0 0 0-3.217.673h-5.601a.32.32 0 0 0-.317.321.32.32 0 0 0 .317.321h4.407a8.15 8.15 0 0 0-1.628 1.397c-.118.131-.108.335.022.454s.331.109.448-.023c1.422-1.59 3.452-2.502 5.569-2.502 4.142 0 7.511 3.411 7.511 7.604s-3.37 7.604-7.511 7.604-7.511-3.411-7.511-7.604c0-1.468.414-2.893 1.198-4.121.095-.149.053-.348-.094-.444s-.344-.054-.439.096a8.29 8.29 0 0 0-1.3 4.47 8.27 8.27 0 0 0 3.736 6.931h-4.408a.32.32 0 0 0-.317.321.32.32 0 0 0 .317.321h5.596a8.01 8.01 0 0 0 3.222.673c4.492 0 8.146-3.7 8.146-8.247s-3.654-8.247-8.146-8.247h0z"/></g><defs ><path id="B" d="M19.878 36.956h-1.322a.32.32 0 0 0-.317.321.32.32 0 0 0 .317.321h1.322a.32.32 0 0 0 .317-.321.32.32 0 0 0-.317-.321z"/></defs></svg>