<svg xmlns="http://www.w3.org/2000/svg" width="21" height="12" fill="none" xmlns:v="https://vecta.io/nano"><path d="M17.418 6.332c-.323-.385-.231-.557 0-.901.004-.004 2.672-3.484 2.946-4.664l.002-.001c.137-.43 0-.746-.66-.746h-2.185c-.556 0-.813.271-.95.575 0 0-1.113 2.515-2.687 4.145-.508.471-.743.622-1.02.622-.137 0-.349-.151-.349-.581V.765c0-.516-.156-.746-.616-.746H8.463c-.349 0-.556.241-.556.465 0 .489.787.602.869 1.978v2.986c0 .654-.126.775-.405.775-.743 0-2.546-2.525-3.614-5.414C4.54.247 4.33.02 3.769.02H1.583c-.624 0-.75.271-.75.575 0 .536.743 3.203 3.454 6.725 1.807 2.404 4.352 3.707 6.667 3.707 1.392 0 1.562-.289 1.562-.787 0-2.298-.126-2.515.571-2.515.323 0 .879.151 2.179 1.311 1.485 1.375 1.729 1.991 2.56 1.991h2.185c.623 0 .939-.289.757-.86-.415-1.201-3.224-3.67-3.35-3.836z" fill="#2c4cbc"/></svg>