<svg xmlns="http://www.w3.org/2000/svg" width="15" height="15" fill="none" xmlns:v="https://vecta.io/nano"><path d="M7.502 0h-.004A7.51 7.51 0 0 0 0 7.5c0 1.641.529 3.161 1.428 4.396l-.935 2.786 2.883-.922C4.562 14.546 5.977 15 7.502 15A7.51 7.51 0 0 0 15 7.5 7.51 7.51 0 0 0 7.502 0zm4.364 10.591c-.181.511-.899.935-1.472 1.059-.392.083-.904.15-2.627-.564-2.204-.913-3.623-3.153-3.734-3.298s-.891-1.186-.891-2.262.547-1.6.767-1.825c.181-.185.48-.269.767-.269l.251.008c.22.009.331.022.476.37l.674 1.623c.053.111.107.261.032.406s-.132.217-.243.344-.216.225-.326.362c-.101.119-.216.247-.088.467s.568.935 1.217 1.512c.837.745 1.516.983 1.759 1.085.181.075.397.057.529-.083.168-.181.375-.481.586-.776.15-.212.339-.238.538-.163s1.274.6 1.494.71.366.163.419.256.053.529-.129 1.041z" fill="#2c4cbc"/></svg>