<svg xmlns="http://www.w3.org/2000/svg" width="20" height="15" fill="none" xmlns:v="https://vecta.io/nano"><path d="M19.374 2.211c-.219-.857-.86-1.533-1.673-1.764-1.486-.428-7.429-.428-7.429-.428s-5.943 0-7.429.412c-.798.231-1.455.923-1.673 1.78C.778 3.776.778 7.024.778 7.024s0 3.264.391 4.813c.219.857.86 1.533 1.674 1.764 1.501.429 7.429.429 7.429.429s5.943 0 7.429-.412c.813-.231 1.455-.906 1.674-1.764.391-1.566.391-4.813.391-4.813s.016-3.264-.391-4.829zM8.379 10.023v-6l4.942 3-4.942 3z" fill="#2c4cbc"/></svg>