<svg width="9" height="14" viewBox="0 0 9 14" fill="none" xmlns="http://www.w3.org/2000/svg">
<path d="M4.34201 0.664185C1.94784 0.664185 0 2.61481 0 5.0124C0 8.02591 4.34628 13.1736 4.34628 13.1736C4.34628 13.1736 8.68402 7.87771 8.68402 5.0124C8.68402 2.61481 6.73625 0.664185 4.34201 0.664185ZM5.65209 6.28555C5.29085 6.64723 4.81647 6.82811 4.34201 6.82811C3.86763 6.82811 3.3931 6.64723 3.03201 6.28555C2.30961 5.5622 2.30961 4.38517 3.03201 3.66174C3.38181 3.31129 3.84712 3.11827 4.34201 3.11827C4.8369 3.11827 5.30213 3.31136 5.65209 3.66174C6.37448 4.38517 6.37448 5.5622 5.65209 6.28555Z" fill="#2C4CBC"/>
</svg>
