<svg xmlns="http://www.w3.org/2000/svg" width="100" height="41" fill="none" xmlns:v="https://vecta.io/nano"><path d="M41.363 36.806l.108-.91-3.18.261-.482 4.163 3.256-.267.114-.911-2.13.175.085-.761 1.811-.148.099-.88-1.805.148.078-.702 2.049-.168zm6.863-1.464l-1.3.107-.938 1.261-.687-1.128-1.224.1 1.198 1.893-1.762 2.277 1.376-.113.963-1.316.714 1.178 1.242-.102-1.268-1.964 1.687-2.194zm2.936 3.883l1.149-.094.377-3.23 1.242-.102.111-.934-3.639.298-.112.934 1.248-.102-.377 3.23zm9.048-3.551c-.066-.819-.703-1.256-1.741-1.171l-1.736.142-.482 4.163 1.149-.094.127-1.106.58-.048.692 1.039L60 38.502l-.79-1.172c.688-.304 1.061-.9 1-1.655zm-1.152.206c.036.451-.24.721-.745.762l-.685.056.147-1.22.603-.049c.395-.032.651.106.679.451zm7.307-1.123l.108-.91-3.18.261-.482 4.163 3.256-.267.114-.911-2.13.175.085-.761 1.811-.148.099-.88-1.805.148.078-.702 2.049-.168zm6.822-1.46l-1.654 2.521-1.143-2.292-.934.077-.482 4.163 1.056-.086.256-2.195.878 1.695.505-.041 1.211-1.866-.244 2.194 1.062-.087.471-4.162-.981.08zm7.141.316l.108-.91-3.181.261-.482 4.163 3.256-.267.114-.911-2.13.174.085-.761 1.81-.148.099-.88-1.805.148.078-.701 2.049-.168z" fill="#001560"/><path fill-rule="evenodd" d="M29.427 21.272c0 7.046-6.091 11.788-15.856 11.788-5.599 0-10.571-1.355-13.571-3.207l4.076-7.859c3.494 2.032 7.077 2.936 10.571 2.936 2.732 0 4.166-.723 4.166-1.852 0-1.232-2.027-1.746-4.587-2.395-4.383-1.111-10.328-2.618-10.328-8.806C3.897 4.697 9.854 0 19.753 0c4.658 0 8.824.948 11.735 2.71l-3.807 7.768c-2.508-1.581-5.554-2.349-8.6-2.349-3.091 0-4.613 1.039-4.613 2.123 0 1.3 2.091 1.805 4.709 2.437 4.386 1.059 10.251 2.475 10.251 8.583zM56.894.723h7.971 4.167 6.448l4.255 10.93L88.47.723h10.615L83.229 20.866l-1.216 6.228c-1.916-2.02-5.178-3.965-9.835-3.697l.525-2.667-6.737-17.198L53.311 15.13l3.557 5.994c-3.018.21-6.257 1.444-9.29 4.471l-2.195-3.555-2.956 2.755-.421 2.15c-2.424.522-5.116 1.892-6.835 4.934-.886.013-1.667.175-2.356.458h-2.257L36.828.723h10.392L44.98 11.923 56.894.723z" fill="url(#A)"/><path d="M36.125 34.184c-6.303-1.49-7.081 3.246-6.809 5.59-1.176-2.884-1.629-8.531 5.964-8.041 2.823-5.828 8.995-6.242 11.355-5.564 7.602-12.033 17.11-7.044 20.913-3.046 9.398-4.157 14.81 2.838 16.341 6.855 4.572.751 5.441 3.876 5.303 5.344-1.205-4.08-4.641-4.477-6.208-4.166-4.178-10.997-12.324-7.509-15.875-4.39-9.613-9.388-16.753-2.449-18.853 2.398-8.177-4.133-11.495 1.624-12.132 5.019z" fill="url(#B)"/><defs><linearGradient id="A" x1="49.542" y1="0" x2="49.542" y2="33.06" gradientUnits="userSpaceOnUse"><stop stop-color="#2c4cbc"/><stop offset="1" stop-color="#0a2172"/></linearGradient><linearGradient id="B" x1="58.316" y1="18.589" x2="59.042" y2="38.701" gradientUnits="userSpaceOnUse"><stop stop-color="#2c4cbc"/><stop offset="1" stop-color="#0a2172"/></linearGradient></defs></svg>