<svg width="66" height="68" viewBox="0 0 66 68" fill="none" xmlns="http://www.w3.org/2000/svg">
<ellipse cx="33" cy="33.6943" rx="33" ry="33.4092" fill="#F3F4F8"/>
<path d="M49.755 32.2754L48.7315 28.1309C49.0113 28.0707 49.2213 27.8194 49.2213 27.5183V26.85C49.2213 25.3991 48.0553 24.2188 46.6223 24.2188H41.9606V22.8404C41.9606 22.1264 41.3869 21.5457 40.6817 21.5457H16.9191C16.2139 21.5457 15.6402 22.1264 15.6402 22.8404V34.2008C15.6402 34.5467 15.9173 34.8273 16.2591 34.8273C16.6008 34.8273 16.8779 34.5468 16.8779 34.2008V22.8404C16.8779 22.8174 16.8964 22.7987 16.9191 22.7987H40.6816C40.7044 22.7987 40.7228 22.8174 40.7228 22.8404V34.2009C40.7228 34.5469 40.9999 34.8274 41.3417 34.8274C41.6834 34.8274 41.9605 34.547 41.9605 34.2009V33.4907H49.2604C49.261 33.4907 49.2614 33.4909 49.262 33.4909C49.2626 33.4909 49.2631 33.4908 49.2637 33.4908C50.1619 33.4914 50.9247 34.0883 51.1866 34.9108H49.2624C48.9207 34.9108 48.6436 35.1913 48.6436 35.5373V36.8738C48.6436 37.9562 49.5134 38.8368 50.5826 38.8368H51.2839V41.5933H49.6658C49.1343 40.0395 47.6753 38.9203 45.9621 38.9203C44.2488 38.9203 42.7898 40.0395 42.2583 41.5933H41.9603V36.8737C41.9603 36.5278 41.6833 36.2472 41.3415 36.2472C40.9998 36.2472 40.7227 36.5277 40.7227 36.8737V41.5932H27.8837C27.3522 40.0394 25.8932 38.9201 24.1799 38.9201C22.4667 38.9201 21.0076 40.0394 20.4762 41.5932H16.9191C16.8964 41.5932 16.8779 41.5745 16.8779 41.5514V40.1731H19.5594C19.9012 40.1731 20.1783 39.8927 20.1783 39.5466C20.1783 39.2006 19.9012 38.9201 19.5594 38.9201H13.6188C13.2771 38.9201 13 39.2006 13 39.5466C13 39.8927 13.277 40.1731 13.6188 40.1731H15.6403V41.5514C15.6403 42.2654 16.214 42.8462 16.9192 42.8462H20.2619C20.2617 42.8601 20.2608 42.8739 20.2608 42.8879C20.2608 45.0758 22.019 46.8556 24.1799 46.8556C26.3409 46.8556 28.099 45.0758 28.099 42.8879C28.099 42.8739 28.0981 42.8601 28.098 42.8462H42.044C42.0439 42.8601 42.0429 42.8739 42.0429 42.8879C42.0429 45.0758 43.8011 46.8556 45.9621 46.8556C48.123 46.8556 49.8812 45.0758 49.8812 42.8879C49.8812 42.8739 49.8803 42.8601 49.8801 42.8462H51.9027C52.2445 42.8462 52.5216 42.5657 52.5216 42.2197V35.5372C52.5217 33.8873 51.3193 32.5165 49.755 32.2754ZM41.9606 25.4717H46.6223C47.373 25.4717 47.9837 26.09 47.9837 26.85V26.8918H41.9606V25.4717ZM41.9606 32.2378V28.1447H47.4593L48.47 32.2378H41.9606ZM24.1799 45.6029C22.7013 45.6029 21.4984 44.3851 21.4984 42.8881C21.4984 41.3911 22.7013 40.1733 24.1799 40.1733C25.6585 40.1733 26.8615 41.3911 26.8615 42.8881C26.8615 44.3851 25.6585 45.6029 24.1799 45.6029ZM45.9622 45.6029C44.4836 45.6029 43.2807 44.3851 43.2807 42.8881C43.2807 41.3911 44.4836 40.1733 45.9622 40.1733C47.4408 40.1733 48.6438 41.3911 48.6438 42.8881C48.6438 44.3851 47.4408 45.6029 45.9622 45.6029ZM51.2841 37.5838H50.5827C50.196 37.5838 49.8814 37.2653 49.8814 36.8737V36.1637H51.284V37.5838H51.2841Z" fill="#2C4CBC"/>
<path d="M24.1798 41.593C23.4746 41.593 22.9009 42.1738 22.9009 42.8878C22.9009 43.6017 23.4746 44.1825 24.1798 44.1825C24.885 44.1825 25.4587 43.6017 25.4587 42.8878C25.4587 42.1738 24.885 41.593 24.1798 41.593Z" fill="#2C4CBC"/>
<path d="M45.9625 41.593C45.2573 41.593 44.6836 42.1738 44.6836 42.8878C44.6836 43.6017 45.2573 44.1825 45.9625 44.1825C46.6677 44.1825 47.2414 43.6017 47.2414 42.8878C47.2414 42.1738 46.6677 41.593 45.9625 41.593Z" fill="#2C4CBC"/>
<path d="M38.7016 38.9202H29.4606C29.1189 38.9202 28.8418 39.2006 28.8418 39.5467C28.8418 39.8927 29.1188 40.1732 29.4606 40.1732H38.7016C39.0433 40.1732 39.3204 39.8927 39.3204 39.5467C39.3204 39.2006 39.0434 38.9202 38.7016 38.9202Z" fill="#2C4CBC"/>
<path d="M22.86 36.2471H14.9392C14.5974 36.2471 14.3203 36.5275 14.3203 36.8736C14.3203 37.2196 14.5974 37.5001 14.9392 37.5001H22.86C23.2017 37.5001 23.4788 37.2196 23.4788 36.8736C23.4788 36.5275 23.2017 36.2471 22.86 36.2471Z" fill="#2C4CBC"/>
<path d="M34.5185 27.7433C34.2769 27.4987 33.885 27.4987 33.6434 27.7433L28.1403 33.3146L25.2776 30.4163C25.0359 30.1716 24.6441 30.1716 24.4025 30.4163C24.1608 30.661 24.1608 31.0576 24.4025 31.3023L27.7028 34.6436C27.8236 34.7659 27.982 34.8271 28.1403 34.8271C28.2987 34.8271 28.4571 34.7659 28.5779 34.6436L34.5185 28.6293C34.7601 28.3845 34.7601 27.9879 34.5185 27.7433Z" fill="#2C4CBC"/>
</svg>
