<svg width="66" height="68" viewBox="0 0 66 68" fill="none" xmlns="http://www.w3.org/2000/svg">
<ellipse cx="33" cy="33.6943" rx="33" ry="33.4092" fill="#F3F4F8"/>
<path d="M42.3299 17.5632L35.7489 21.4099C35.4868 21.563 35.3969 21.9024 35.5483 22.1678L35.8406 22.6803C36.0118 22.9805 35.9098 23.3659 35.6132 23.5392C35.3166 23.7126 34.936 23.6094 34.7648 23.3091L34.4725 22.7966C34.3212 22.5312 33.986 22.4403 33.7239 22.5935L13.9808 34.1335C13.44 34.4496 13.254 35.1522 13.5663 35.6998L22.3345 51.0751C22.6468 51.6227 23.3408 51.8109 23.8816 51.4948L43.6248 39.9547C43.8869 39.8015 43.9767 39.4622 43.8254 39.1968L43.5331 38.6843C43.3619 38.384 43.4638 37.9987 43.7604 37.8253C44.057 37.652 44.4377 37.7552 44.6089 38.0555L44.9012 38.568C45.0525 38.8333 45.3877 38.9243 45.6498 38.7711L52.2308 34.9244C52.7717 34.6083 52.9577 33.9057 52.6454 33.3581L43.8772 17.9828C43.5648 17.4353 42.8708 17.247 42.3299 17.5632ZM51.6961 33.913C51.7062 33.9306 51.7002 33.9532 51.6827 33.9634L45.5763 37.5328L45.558 37.5007C45.1804 36.8386 44.4346 36.5235 43.7321 36.6661L43.3764 36.0425C43.2251 35.7771 42.8899 35.6862 42.6278 35.8394C42.3657 35.9926 42.2759 36.3319 42.4272 36.5973L42.7829 37.2209C42.3096 37.7656 42.2063 38.577 42.5839 39.2392L42.6021 39.2712L23.3336 50.5338C23.3161 50.544 23.2938 50.5379 23.2837 50.5203L14.5155 35.145C14.5054 35.1273 14.5114 35.1047 14.5289 35.0945L33.7974 23.8318L33.8157 23.8638C34.1933 24.526 34.9391 24.8411 35.6416 24.6985L35.9972 25.3221C36.1485 25.5875 36.4837 25.6784 36.7458 25.5252C37.0079 25.372 37.0978 25.0327 36.9464 24.7673L36.5908 24.1437C37.064 23.599 37.1674 22.7876 36.7898 22.1254L36.7715 22.0934L42.878 18.5242C42.8954 18.514 42.9177 18.52 42.9278 18.5377L51.696 33.913L51.6961 33.913Z" fill="#2C4CBC"/>
<path d="M37.3667 26.6142C37.1046 26.7674 37.0148 27.1067 37.1661 27.3721L37.7506 28.3971C37.902 28.6624 38.2371 28.7534 38.4993 28.6002C38.7614 28.447 38.8512 28.1077 38.6999 27.8423L38.1153 26.8173C37.964 26.5519 37.6288 26.461 37.3667 26.6142Z" fill="#2C4CBC"/>
<path d="M39.1206 29.6894C38.8585 29.8426 38.7687 30.1819 38.92 30.4473L39.5046 31.4723C39.6559 31.7376 39.991 31.8286 40.2532 31.6754C40.5153 31.5222 40.6051 31.1829 40.4538 30.9175L39.8692 29.8925C39.7179 29.6271 39.3827 29.5362 39.1206 29.6894Z" fill="#2C4CBC"/>
<path d="M40.874 32.7643C40.6119 32.9175 40.5221 33.2569 40.6734 33.5222L41.258 34.5472C41.4093 34.8126 41.7445 34.9036 42.0066 34.7503C42.2687 34.5971 42.3585 34.2578 42.2072 33.9924L41.6227 32.9674C41.4713 32.702 41.1361 32.6111 40.874 32.7643Z" fill="#2C4CBC"/>
<path d="M30.6174 29.3806C30.325 29.3013 30.0245 29.4769 29.9462 29.7729L26.095 44.3243C26.0166 44.6203 26.1901 44.9245 26.4825 45.0037C26.6286 45.0434 26.7769 45.0193 26.8983 44.9483C27.0197 44.8774 27.1144 44.7595 27.1536 44.6115L31.0049 30.0601C31.0832 29.7641 30.9097 29.4598 30.6174 29.3806Z" fill="#2C4CBC"/>
<path d="M22.3154 33.362C20.9372 34.1676 20.4633 35.9582 21.259 37.3535C22.0547 38.7488 23.8234 39.2286 25.2016 38.423C26.5798 37.6175 27.0537 35.8268 26.258 34.4315C25.4623 33.0362 23.6936 32.5564 22.3154 33.362ZM24.6536 37.4621C23.7988 37.9618 22.7017 37.6642 22.2082 36.7987C21.7146 35.9332 22.0086 34.8226 22.8634 34.3229C23.7183 33.8233 24.8153 34.1209 25.3089 34.9863C25.8024 35.8518 25.5084 36.9624 24.6536 37.4621Z" fill="#2C4CBC"/>
<path d="M31.8979 35.9611C30.5197 36.7667 30.0458 38.5573 30.8415 39.9526C31.6372 41.3479 33.4059 41.8277 34.7841 41.0221C36.1623 40.2166 36.6363 38.4259 35.8406 37.0307C35.0449 35.6354 33.2761 35.1556 31.8979 35.9611ZM34.2361 40.0612C33.3813 40.5609 32.2842 40.2633 31.7907 39.3978C31.2971 38.5324 31.5911 37.4217 32.446 36.9221C33.3008 36.4224 34.3978 36.72 34.8914 37.5854C35.3849 38.4509 35.0909 39.5616 34.2361 40.0612Z" fill="#2C4CBC"/>
</svg>
