<svg xmlns="http://www.w3.org/2000/svg" width="66" height="67" fill="none" xmlns:v="https://vecta.io/nano"><ellipse cx="33" cy="33.409" rx="33" ry="33.409" fill="#f3f4f8"/><path d="M47.466 19H18.078A1.08 1.08 0 0 0 17 20.082v3.808c0 .599.924.599.924 0v-3.808c0-.085.069-.155.154-.155h29.387c.085 0 .154.069.154.155v22.612c0 .085-.069.154-.154.154h-5.921v-.965h4.647c.255 0 .462-.208.462-.464v-4.856c0-.6-.924-.6-.924 0v4.392h-4.185v-2.057l.044.004c.384.034.861.076 1.191-.256s.288-.811.255-1.196c-.036-.413.003-.526.319-.791.815-.68.83-1.408 0-2.101-.317-.264-.355-.377-.319-.791.091-1.037-.392-1.545-1.446-1.453-.411.036-.523-.003-.785-.321-.677-.82-1.403-.835-2.092 0-.262.318-.374.357-.785.321-1.034-.091-1.538.396-1.446 1.453.036.414-.003.526-.319.791-.815.68-.83 1.408 0 2.101.317.264.355.377.319.791-.097 1.111.432 1.54 1.49 1.449v2.057H19.814V21.82H45.73v12.272c0 .6.924.6.924 0V21.356c0-.256-.207-.464-.462-.464h-26.84c-.255 0-.462.208-.462.464V41.42c0 .256.207.464.462.464h18.619v.965H18.078c-.085 0-.154-.069-.154-.154V26.239c0-.599-.924-.599-.924 0v16.455a1.08 1.08 0 0 0 1.078 1.082h19.893v2.099c.066.381.285.521.657.42l1.13-.527 1.13.527c.28.13.657-.076.657-.42v-2.099h5.921a1.08 1.08 0 0 0 1.078-1.082V20.082A1.08 1.08 0 0 0 47.466 19h0zm-9.62 18.979c-.462.041-.485.016-.444-.448.062-.712-.101-1.127-.649-1.585-.375-.313-.375-.362 0-.675.548-.457.711-.873.649-1.585-.041-.464-.018-.489.444-.448.71.063 1.123-.102 1.578-.653.31-.376.358-.376.669 0 .455.551.868.715 1.578.653.463-.041.485-.016.444.448-.062.712.101 1.127.649 1.585.375.313.375.362 0 .675-.548.457-.711.873-.649 1.584.041.464.018.489-.444.448-.29-.026-.619-.055-.909.066-.281.117-.478.356-.668.587-.09.109-.254.308-.334.343-.08-.035-.244-.234-.334-.343-.191-.231-.388-.47-.668-.587a2 2 0 0 0-.909-.066zm2.107 6.857a.46.46 0 0 0-.39 0l-.668.312v-5.71c.219.242.49.467.862.467s.643-.225.863-.466v5.709l-.668-.312zM22.992 25.701h15.929c.597 0 .597-.927 0-.927H22.992c-.598 0-.598.927 0 .927h0zm20.022 2.357c0-.256-.207-.464-.462-.464H22.993c-.597 0-.597.927 0 .927h19.559c.255 0 .462-.208.462-.464h0zm-8.447 2.82c0-.256-.207-.464-.462-.464H22.993c-.597 0-.597.927 0 .927h11.113c.255 0 .462-.208.462-.464zm-6.068 6.463l-.756.001c-.485 0-.751-.129-.851-.645-.09-.471-.767-.411-.891 0-.055.182-.332.703-.574.66-.128-.023-.184-.221-.232-.324-.092-.2-.16-.412-.217-.625-.243-.898-.292-1.837-.444-2.752-.088-.531-.895-.381-.908.123-.041 1.606-.303 3.189-.873 4.694-.211.558.682.8.891.246a13.15 13.15 0 0 0 .529-1.777 4.71 4.71 0 0 0 .265.645c.27.535.82.852 1.409.614.21-.085.402-.233.565-.414.437.506 1.088.483 1.694.482l2.744-.006c.595-.002.596-.929 0-.927l-2.353.005h0zm11.258.079a1.811 1.811 0 0 0 0-3.622 1.811 1.811 0 0 0 0 3.622zm0-2.695c.486 0 .881.396.881.884s-.395.884-.881.884-.881-.396-.881-.884.395-.884.881-.884z" fill="#2c4cbc"/></svg>