<svg width="66" height="68" viewBox="0 0 66 68" fill="none" xmlns="http://www.w3.org/2000/svg">
<ellipse cx="33" cy="33.6943" rx="33" ry="33.4092" fill="#F3F4F8"/>
<path d="M50.2097 24.5695L37.89 18.5483C37.7808 18.495 37.6536 18.495 37.5444 18.5483L25.2246 24.5695C25.0873 24.6366 25 24.7775 25 24.9319V39.5548C25 39.7092 25.0873 39.85 25.2246 39.9171L37.5444 45.9383C37.5989 45.965 37.6581 45.9784 37.7172 45.9784C37.7763 45.9784 37.8354 45.965 37.89 45.9383L50.2097 39.9171C50.3471 39.85 50.4343 39.7092 50.4343 39.5548V24.9319C50.4343 24.7774 50.347 24.6367 50.2097 24.5695ZM37.7172 19.3575L49.1227 24.9319L45.8164 26.5478C45.7955 26.5316 45.7734 26.5167 45.7491 26.5048L34.4211 20.9685L37.7172 19.3575ZM33.5235 21.4234L44.9124 26.9896L42.5798 28.1297L31.1956 22.5657L33.5235 21.4234ZM45.1789 27.753V31.9672L43.0001 33.0321V28.8179L45.1789 27.753ZM49.6394 39.3023L38.1146 44.9348V31.2056L40.8637 29.862C41.0613 29.7654 41.1442 29.5249 41.0488 29.3247C40.9533 29.1246 40.7158 29.0406 40.518 29.1373L37.7172 30.5062L36.6151 29.9676C36.4174 29.8708 36.1798 29.9549 36.0843 30.155C35.9889 30.3551 36.0718 30.5957 36.2694 30.6923L37.3197 31.2056V44.9348L25.7949 39.3022V25.573L34.571 29.8622C34.6266 29.8895 34.6855 29.9023 34.7434 29.9023C34.8912 29.9023 35.0331 29.8185 35.1016 29.6748C35.1971 29.4747 35.1142 29.2341 34.9165 29.1375L26.3117 24.9319L30.2601 23.0021L42.1996 28.8375C42.2014 28.84 42.2033 28.8422 42.2051 28.8446V33.6732C42.2051 33.8117 42.2755 33.9404 42.3913 34.0141C42.4556 34.055 42.529 34.0756 42.6027 34.0756C42.6616 34.0756 42.7207 34.0624 42.7754 34.0356L45.7491 32.5822C45.8865 32.5151 45.9738 32.3743 45.9738 32.2198V27.3646L49.6394 25.573V39.3023V39.3023Z" fill="#2C4CBC"/>
<path d="M29.0751 37.7416L27.2672 36.858C27.0694 36.7613 26.8318 36.8453 26.7364 37.0454C26.641 37.2456 26.7238 37.4861 26.9215 37.5828L28.7295 38.4664C28.7851 38.4936 28.844 38.5065 28.9019 38.5065C29.0497 38.5065 29.1916 38.4227 29.2601 38.279C29.3556 38.0788 29.2728 37.8383 29.0751 37.7416Z" fill="#2C4CBC"/>
<path d="M30.7389 36.6452L27.2696 34.9495C27.0718 34.8529 26.8343 34.9368 26.7388 35.137C26.6434 35.3371 26.7263 35.5777 26.924 35.6743L30.3933 37.37C30.449 37.3972 30.5079 37.4101 30.5658 37.4101C30.7136 37.4101 30.8555 37.3263 30.924 37.1826C31.0195 36.9823 30.9366 36.7417 30.7389 36.6452Z" fill="#2C4CBC"/>
<ellipse cx="28.6613" cy="39.8451" rx="8.00845" ry="8.10775" fill="#F3F4F8"/>
<path d="M16.6451 35.4086H19.9928C20.1681 35.4086 20.3102 35.2648 20.3102 35.0872C20.3102 34.9097 20.1681 34.7659 19.9928 34.7659H16.6451C16.4698 34.7659 16.3276 34.9097 16.3276 35.0872C16.3276 35.2648 16.4697 35.4086 16.6451 35.4086Z" fill="#2C4CBC"/>
<path d="M19.8782 36.9561H18.5557C18.3804 36.9561 18.2383 37.0999 18.2383 37.2774C18.2383 37.4549 18.3804 37.5988 18.5557 37.5988H19.8782C20.0535 37.5988 20.1956 37.4549 20.1956 37.2774C20.1956 37.0999 20.0535 36.9561 19.8782 36.9561Z" fill="#2C4CBC"/>
<path d="M15.3174 39.1842H18.5557C18.731 39.1842 18.8732 39.0404 18.8732 38.8629C18.8732 38.6853 18.731 38.5415 18.5557 38.5415H15.3174C15.1421 38.5415 15 38.6853 15 38.8629C15 39.0404 15.1421 39.1842 15.3174 39.1842Z" fill="#2C4CBC"/>
<path d="M20.3102 44.8814C20.3102 44.7039 20.1681 44.5601 19.9928 44.5601H16.6451C16.4698 44.5601 16.3276 44.7039 16.3276 44.8814C16.3276 45.0589 16.4698 45.2028 16.6451 45.2028H19.9928C20.1681 45.2028 20.3102 45.0589 20.3102 44.8814Z" fill="#2C4CBC"/>
<path d="M19.8782 42.3704H18.5557C18.3804 42.3704 18.2383 42.5142 18.2383 42.6917C18.2383 42.8693 18.3804 43.0131 18.5557 43.0131H19.8782C20.0535 43.0131 20.1956 42.8693 20.1956 42.6917C20.1956 42.5142 20.0535 42.3704 19.8782 42.3704Z" fill="#2C4CBC"/>
<path d="M18.8732 41.106C18.8732 40.9285 18.731 40.7847 18.5557 40.7847H15.3174C15.1421 40.7847 15 40.9285 15 41.106C15 41.2836 15.1421 41.4274 15.3174 41.4274H18.5557C18.731 41.4274 18.8732 41.2836 18.8732 41.106Z" fill="#2C4CBC"/>
<path d="M28.524 36.1206C28.6993 36.1206 28.8414 35.9767 28.8414 35.7992V35.3087C28.8414 35.1311 28.6993 34.9873 28.524 34.9873C28.3486 34.9873 28.2065 35.1311 28.2065 35.3087V35.7992C28.2065 35.9767 28.3486 36.1206 28.524 36.1206Z" fill="#2C4CBC"/>
<path d="M32.0139 36.4513C31.8899 36.3258 31.689 36.3258 31.565 36.4513L31.2224 36.7981C31.0984 36.9237 31.0984 37.1271 31.2224 37.2526C31.3464 37.3781 31.5473 37.3781 31.6713 37.2526L32.0139 36.9058C32.1378 36.7803 32.1378 36.5768 32.0139 36.4513Z" fill="#2C4CBC"/>
<path d="M32.6573 39.6633C32.4819 39.6633 32.3398 39.8072 32.3398 39.9847C32.3398 40.1622 32.4819 40.3061 32.6573 40.3061H33.1418C33.3171 40.3061 33.4592 40.1622 33.4592 39.9847C33.4592 39.8072 33.3171 39.6633 33.1418 39.6633H32.6573Z" fill="#2C4CBC"/>
<path d="M31.6713 42.7164C31.5473 42.5909 31.3463 42.5909 31.2224 42.7164C31.0984 42.842 31.0984 43.0454 31.2224 43.1709L31.565 43.5178C31.689 43.6433 31.8899 43.6432 32.0139 43.5178C32.1379 43.3922 32.1379 43.1888 32.0139 43.0633L31.6713 42.7164Z" fill="#2C4CBC"/>
<path d="M28.2065 44.1695V44.66C28.2065 44.8375 28.3486 44.9814 28.524 44.9814C28.6993 44.9814 28.8414 44.8375 28.8414 44.66V44.1695C28.8414 43.992 28.6993 43.8481 28.524 43.8481C28.3486 43.8481 28.2065 43.992 28.2065 44.1695Z" fill="#2C4CBC"/>
<path d="M25.376 42.7164L25.0334 43.0633C24.9094 43.1888 24.9094 43.3923 25.0334 43.5178C25.1574 43.6433 25.3584 43.6432 25.4823 43.5178L25.8249 43.1709C25.9489 43.0454 25.9489 42.8419 25.8249 42.7164C25.701 42.5909 25.5 42.5909 25.376 42.7164Z" fill="#2C4CBC"/>
<path d="M23.9053 39.6633C23.73 39.6633 23.5879 39.8072 23.5879 39.9847C23.5879 40.1622 23.73 40.3061 23.9053 40.3061H24.3898C24.5652 40.3061 24.7073 40.1622 24.7073 39.9847C24.7073 39.8072 24.5652 39.6633 24.3898 39.6633H23.9053Z" fill="#2C4CBC"/>
<path d="M25.8249 36.7981L25.4823 36.4513C25.3583 36.3258 25.1573 36.3258 25.0334 36.4513C24.9094 36.5768 24.9094 36.7803 25.0334 36.9058L25.376 37.2526C25.5 37.3781 25.701 37.3781 25.8249 37.2526C25.9489 37.1271 25.9489 36.9237 25.8249 36.7981Z" fill="#2C4CBC"/>
<path d="M30.2309 39.9848C30.2309 39.8073 30.0888 39.6634 29.9135 39.6634H28.8414V37.2774C28.8414 37.0999 28.6993 36.9561 28.524 36.9561C28.3486 36.9561 28.2065 37.0999 28.2065 37.2774V39.9848C28.2065 40.1623 28.3486 40.3062 28.524 40.3062H29.9135C30.0888 40.3062 30.2309 40.1623 30.2309 39.9848Z" fill="#2C4CBC"/>
<path d="M34.5427 39.9311C34.7177 39.9204 34.8509 39.7681 34.8403 39.5909C34.6384 36.2186 31.8638 33.5769 28.5236 33.5769C25.0339 33.5769 22.1948 36.4512 22.1948 39.9842C22.1948 43.5172 25.0339 46.3915 28.5236 46.3915C31.6501 46.3915 34.3178 44.0724 34.7819 40.943C34.8079 40.7675 34.6885 40.6038 34.5151 40.5775C34.3421 40.5512 34.1801 40.672 34.154 40.8476C33.7372 43.6591 31.3392 45.7488 28.5236 45.7488C25.384 45.7488 22.8297 43.1628 22.8297 39.9843C22.8297 36.8057 25.384 34.2197 28.5236 34.2197C31.5287 34.2197 34.0249 36.5961 34.2066 39.6299C34.2172 39.807 34.3675 39.9414 34.5427 39.9311Z" fill="#2C4CBC"/>
<path d="M28.5237 31.7373C27.4072 31.7373 26.3132 31.9718 25.3063 32.4104H19.7056C19.5303 32.4104 19.3882 32.5542 19.3882 32.7317C19.3882 32.9093 19.5303 33.0531 19.7056 33.0531H24.1121C23.5163 33.4413 22.9678 33.9096 22.4842 34.4502C22.3666 34.5817 22.3765 34.7849 22.5064 34.9041C22.6364 35.0232 22.837 35.0131 22.9548 34.8816C24.377 33.2918 26.4068 32.38 28.5237 32.38C32.6655 32.38 36.0351 35.7914 36.0351 39.9845C36.0351 44.1775 32.6655 47.5889 28.5237 47.5889C24.382 47.5889 21.0124 44.1776 21.0124 39.9845C21.0124 38.5161 21.4267 37.091 22.2105 35.863C22.3056 35.7139 22.2634 35.515 22.1161 35.4187C21.9689 35.3224 21.7724 35.3651 21.6772 35.5142C20.8269 36.8463 20.3776 38.3921 20.3776 39.9845C20.3776 42.8882 21.8676 45.4459 24.1141 46.9158H19.7057C19.5304 46.9158 19.3882 47.0597 19.3882 47.2372C19.3882 47.4147 19.5304 47.5586 19.7057 47.5586H25.302C26.2907 47.9913 27.3799 48.2316 28.5238 48.2316C33.0155 48.2316 36.6699 44.532 36.6699 39.9845C36.6699 35.437 33.0155 31.7373 28.5237 31.7373V31.7373Z" fill="#2C4CBC"/>
</svg>
